<svg width="79" height="20" viewBox="0 0 79 20" fill="none" xmlns="http://www.w3.org/2000/svg">
<path d="M9.48436 0.656553C9.98391 0.656553 10.3836 0.792146 10.6833 1.06333C10.9973 1.33452 11.1543 1.69134 11.1543 2.1338V14.4656C11.1543 14.9223 11.0044 15.2934 10.7047 15.5789C10.4192 15.8501 10.0339 15.9857 9.54859 15.9857C9.06331 15.9857 8.6708 15.8501 8.37107 15.5789C8.08561 15.2934 7.94288 14.9223 7.94288 14.4656V14.2943C7.62888 14.8367 7.17928 15.2649 6.59409 15.5789C6.02318 15.8786 5.37376 16.0285 4.64584 16.0285C3.74664 16.0285 2.94022 15.8001 2.22657 15.3434C1.5272 14.8724 0.977698 14.223 0.578056 13.3951C0.192687 12.553 0 11.5896 0 10.5049C0 9.42013 0.192687 8.47098 0.578056 7.65742C0.977698 6.82959 1.5272 6.19445 2.22657 5.75199C2.92595 5.30953 3.73237 5.0883 4.64584 5.0883C5.35949 5.0883 6.00177 5.23816 6.57268 5.53789C7.15787 5.83762 7.60747 6.25868 7.92147 6.80105V2.06957C7.92147 1.64138 8.0642 1.29884 8.34966 1.04192C8.63512 0.78501 9.01335 0.656553 9.48436 0.656553ZM5.58785 13.5664C6.34432 13.5664 6.92237 13.3095 7.32201 12.7957C7.73593 12.2676 7.94288 11.5182 7.94288 10.5477C7.94288 9.57713 7.73593 8.83494 7.32201 8.32111C6.92237 7.80729 6.34432 7.55037 5.58785 7.55037C4.83139 7.55037 4.24619 7.80729 3.83228 8.32111C3.41836 8.82066 3.21141 9.54858 3.21141 10.5049C3.21141 11.4754 3.41836 12.2319 3.83228 12.7743C4.24619 13.3024 4.83139 13.5664 5.58785 13.5664Z" fill="#4E60FF"/>
<path d="M22.0791 12.7314C22.3646 12.7314 22.5929 12.8456 22.7642 13.074C22.9497 13.3024 23.0425 13.595 23.0425 13.9518C23.0425 14.1944 22.9712 14.4228 22.8284 14.6369C22.6857 14.8367 22.4859 15.008 22.229 15.1507C21.7437 15.4076 21.1799 15.6217 20.5376 15.793C19.8953 15.95 19.303 16.0285 18.7606 16.0285C17.6188 16.0285 16.6197 15.8073 15.7633 15.3648C14.9212 14.9223 14.2718 14.2943 13.8151 13.4808C13.3583 12.6529 13.13 11.6824 13.13 10.5691C13.13 9.49863 13.3512 8.54948 13.7937 7.72165C14.2361 6.89382 14.8499 6.25154 15.6349 5.7948C16.4199 5.3238 17.3119 5.0883 18.311 5.0883C19.2673 5.0883 20.1023 5.30239 20.8159 5.73058C21.5439 6.14449 22.1076 6.74395 22.5073 7.52896C22.9069 8.2997 23.1067 9.20603 23.1067 10.248C23.1067 10.562 23.0282 10.8046 22.8712 10.9759C22.7285 11.1329 22.5216 11.2114 22.2504 11.2114H16.2557C16.3557 12.0535 16.6126 12.6672 17.0265 13.0526C17.4404 13.4237 18.0327 13.6092 18.8035 13.6092C19.2174 13.6092 19.5885 13.5593 19.9167 13.4594C20.245 13.3595 20.609 13.2239 21.0086 13.0526C21.2085 12.9669 21.4011 12.8956 21.5867 12.8385C21.7722 12.7671 21.9364 12.7314 22.0791 12.7314ZM18.3967 7.31487C17.7829 7.31487 17.2905 7.51469 16.9194 7.91433C16.5483 8.2997 16.3271 8.86348 16.2557 9.60567H20.3878C20.3449 8.84921 20.1523 8.27829 19.8097 7.89292C19.4814 7.50756 19.0104 7.31487 18.3967 7.31487Z" fill="#4E60FF"/>
<path d="M26.6865 15.9857C26.2155 15.9857 25.823 15.8572 25.5089 15.6003C25.2092 15.3434 25.0593 14.9652 25.0593 14.4656V2.17662C25.0593 1.67707 25.2092 1.29884 25.5089 1.04192C25.823 0.78501 26.2155 0.656553 26.6865 0.656553C27.1432 0.656553 27.5214 0.78501 27.8212 1.04192C28.1352 1.29884 28.2922 1.67707 28.2922 2.17662V14.4656C28.2922 14.9652 28.1352 15.3434 27.8212 15.6003C27.5214 15.8572 27.1432 15.9857 26.6865 15.9857Z" fill="#4E60FF"/>
<path d="M32.3942 15.9857C31.9232 15.9857 31.5307 15.8572 31.2167 15.6003C30.917 15.3434 30.7671 14.9652 30.7671 14.4656V6.65118C30.7671 6.15163 30.9241 5.7734 31.2381 5.51648C31.5521 5.25957 31.9375 5.13111 32.3942 5.13111C32.851 5.13111 33.2292 5.25957 33.5289 5.51648C33.8429 5.7734 33.9999 6.15163 33.9999 6.65118V14.4656C33.9999 14.9652 33.8429 15.3434 33.5289 15.6003C33.2292 15.8572 32.851 15.9857 32.3942 15.9857ZM32.3942 3.41836C31.8233 3.41836 31.3737 3.27563 31.0454 2.99018C30.7172 2.69044 30.553 2.2908 30.553 1.79125C30.553 1.2917 30.7172 0.899193 31.0454 0.613735C31.3737 0.328276 31.8233 0.185547 32.3942 0.185547C32.9509 0.185547 33.3933 0.335413 33.7216 0.635144C34.0642 0.920603 34.2354 1.30597 34.2354 1.79125C34.2354 2.2908 34.0713 2.69044 33.743 2.99018C33.4148 3.27563 32.9652 3.41836 32.3942 3.41836Z" fill="#4E60FF"/>
<path d="M43.647 6.05172C43.7898 5.75199 43.9753 5.53076 44.2037 5.38803C44.4463 5.23103 44.7032 5.15252 44.9744 5.15252C45.3741 5.15252 45.7309 5.28812 46.0449 5.5593C46.3589 5.81621 46.5159 6.13022 46.5159 6.50132C46.5159 6.71541 46.4659 6.92237 46.366 7.12219L42.5123 15.0222C42.3696 15.3363 42.1555 15.5789 41.8701 15.7502C41.5846 15.9072 41.2777 15.9857 40.9495 15.9857C40.6212 15.9857 40.3143 15.9072 40.0289 15.7502C39.7434 15.5789 39.5222 15.3363 39.3652 15.0222L35.5115 7.12219C35.4258 6.92237 35.383 6.72968 35.383 6.54413C35.383 6.15876 35.5472 5.83049 35.8754 5.5593C36.218 5.28812 36.5962 5.15252 37.0101 5.15252C37.3099 5.15252 37.5811 5.23103 37.8237 5.38803C38.0663 5.53076 38.259 5.75199 38.4017 6.05172L41.0351 11.8108L43.647 6.05172Z" fill="#4E60FF"/>
<path d="M56.1376 12.7314C56.423 12.7314 56.6514 12.8456 56.8227 13.074C57.0082 13.3024 57.101 13.595 57.101 13.9518C57.101 14.1944 57.0296 14.4228 56.8869 14.6369C56.7442 14.8367 56.5444 15.008 56.2874 15.1507C55.8022 15.4076 55.2384 15.6217 54.5961 15.793C53.9538 15.95 53.3615 16.0285 52.8191 16.0285C51.6773 16.0285 50.6782 15.8073 49.8218 15.3648C48.9797 14.9223 48.3303 14.2943 47.8736 13.4808C47.4168 12.6529 47.1885 11.6824 47.1885 10.5691C47.1885 9.49863 47.4097 8.54948 47.8521 7.72165C48.2946 6.89382 48.9083 6.25154 49.6934 5.7948C50.4784 5.3238 51.3704 5.0883 52.3695 5.0883C53.3258 5.0883 54.1608 5.30239 54.8744 5.73058C55.6023 6.14449 56.1661 6.74395 56.5658 7.52896C56.9654 8.2997 57.1652 9.20603 57.1652 10.248C57.1652 10.562 57.0867 10.8046 56.9297 10.9759C56.787 11.1329 56.58 11.2114 56.3089 11.2114H50.3142C50.4141 12.0535 50.6711 12.6672 51.085 13.0526C51.4989 13.4237 52.0912 13.6092 52.8619 13.6092C53.2759 13.6092 53.6469 13.5593 53.9752 13.4594C54.3035 13.3595 54.6675 13.2239 55.0671 13.0526C55.2669 12.9669 55.4596 12.8956 55.6452 12.8385C55.8307 12.7671 55.9949 12.7314 56.1376 12.7314ZM52.4552 7.31487C51.8414 7.31487 51.349 7.51469 50.9779 7.91433C50.6068 8.2997 50.3856 8.86348 50.3142 9.60567H54.4462C54.4034 8.84921 54.2107 8.27829 53.8682 7.89292C53.5399 7.50756 53.0689 7.31487 52.4552 7.31487Z" fill="#4E60FF"/>
<path d="M65.3908 5.13111C65.819 5.10257 66.1544 5.20248 66.397 5.43085C66.6539 5.64494 66.7824 5.97322 66.7824 6.41568C66.7824 6.88668 66.6682 7.23637 66.4398 7.46474C66.2115 7.6931 65.8047 7.83583 65.2195 7.89292L64.5772 7.95715C63.7922 8.04279 63.2213 8.2997 62.8645 8.72789C62.5219 9.15608 62.3507 9.70559 62.3507 10.3764V14.4656C62.3507 14.9652 62.1936 15.3434 61.8796 15.6003C61.5799 15.8572 61.2017 15.9857 60.7449 15.9857C60.2739 15.9857 59.8814 15.8572 59.5674 15.6003C59.2677 15.3434 59.1178 14.9652 59.1178 14.4656V6.60836C59.1178 6.13736 59.2748 5.7734 59.5888 5.51648C59.9028 5.25957 60.2811 5.13111 60.7235 5.13111C61.1517 5.13111 61.5085 5.25957 61.794 5.51648C62.0795 5.75912 62.2222 6.10167 62.2222 6.54413V7.12219C62.4791 6.50845 62.8645 6.03744 63.3783 5.70917C63.9064 5.38089 64.4773 5.19534 65.091 5.15252L65.3908 5.13111Z" fill="#4E60FF"/>
<path d="M75.5311 6.05172C75.6596 5.75199 75.838 5.53076 76.0664 5.38803C76.309 5.2453 76.5659 5.17393 76.8371 5.17393C77.251 5.17393 77.615 5.30953 77.929 5.58071C78.243 5.83762 78.4 6.15163 78.4 6.52272C78.4 6.72254 78.35 6.92237 78.2501 7.12219L72.491 18.9402C72.3483 19.2399 72.1556 19.4611 71.913 19.6039C71.6703 19.7609 71.4134 19.8394 71.1422 19.8394C70.7426 19.8394 70.3929 19.7109 70.0932 19.454C69.7934 19.1971 69.6436 18.8831 69.6436 18.512C69.6436 18.2836 69.6935 18.0695 69.7934 17.8697L71.2064 14.9366L67.3956 7.12219C67.3099 6.92237 67.2671 6.72968 67.2671 6.54413C67.2671 6.15876 67.4313 5.83049 67.7595 5.5593C68.1021 5.28812 68.4874 5.15252 68.9156 5.15252C69.2011 5.15252 69.4651 5.23103 69.7078 5.38803C69.9504 5.53076 70.1431 5.75199 70.2858 6.05172L72.9406 11.8323L75.5311 6.05172Z" fill="#4E60FF"/>
</svg>
