<svg width="48" height="16" viewBox="0 0 48 16" fill="none" xmlns="http://www.w3.org/2000/svg">
<path d="M1.66993 15.4324C1.17038 15.4324 0.763601 15.2825 0.449597 14.9828C0.149866 14.6688 0 14.262 0 13.7625V1.7732C0 1.27365 0.135593 0.888282 0.406778 0.617097C0.677964 0.345911 1.06333 0.210318 1.56289 0.210318H8.92771C9.47008 0.210318 9.86973 0.317365 10.1266 0.531459C10.3836 0.745553 10.512 1.08097 10.512 1.5377C10.512 1.98016 10.3836 2.30844 10.1266 2.52253C9.86973 2.73663 9.47008 2.84367 8.92771 2.84367H3.29704V6.31199H8.49952C9.04189 6.31199 9.44154 6.41904 9.69845 6.63313C9.95536 6.84723 10.0838 7.18264 10.0838 7.63937C10.0838 8.08183 9.95536 8.41011 9.69845 8.62421C9.44154 8.8383 9.04189 8.94535 8.49952 8.94535H3.29704V13.7625C3.29704 14.2763 3.14718 14.6831 2.84745 14.9828C2.56199 15.2825 2.16948 15.4324 1.66993 15.4324Z" fill="#2B2B43"/>
<path d="M16.8385 15.4752C15.7252 15.4752 14.7475 15.254 13.9054 14.8115C13.0633 14.3548 12.4139 13.7196 11.9571 12.9061C11.5004 12.0783 11.272 11.1077 11.272 9.99441C11.272 8.88112 11.5004 7.9177 11.9571 7.10414C12.4139 6.27631 13.0633 5.64117 13.9054 5.1987C14.7475 4.75624 15.7252 4.53501 16.8385 4.53501C17.9518 4.53501 18.9295 4.75624 19.7716 5.1987C20.6137 5.64117 21.2631 6.27631 21.7198 7.10414C22.1766 7.9177 22.4049 8.88112 22.4049 9.99441C22.4049 11.1077 22.1766 12.0783 21.7198 12.9061C21.2631 13.7196 20.6137 14.3548 19.7716 14.8115C18.9295 15.254 17.9518 15.4752 16.8385 15.4752ZM16.8385 13.0131C18.4085 13.0131 19.1935 12.0069 19.1935 9.99441C19.1935 8.98103 18.9866 8.22456 18.5726 7.72501C18.173 7.22546 17.5949 6.97568 16.8385 6.97568C15.2685 6.97568 14.4834 7.98192 14.4834 9.99441C14.4834 12.0069 15.2685 13.0131 16.8385 13.0131Z" fill="#2B2B43"/>
<path d="M29.4249 15.4752C28.3116 15.4752 27.3339 15.254 26.4918 14.8115C25.6497 14.3548 25.0002 13.7196 24.5435 12.9061C24.0868 12.0783 23.8584 11.1077 23.8584 9.99441C23.8584 8.88112 24.0868 7.9177 24.5435 7.10414C25.0002 6.27631 25.6497 5.64117 26.4918 5.1987C27.3339 4.75624 28.3116 4.53501 29.4249 4.53501C30.5381 4.53501 31.5158 4.75624 32.3579 5.1987C33.2 5.64117 33.8495 6.27631 34.3062 7.10414C34.7629 7.9177 34.9913 8.88112 34.9913 9.99441C34.9913 11.1077 34.7629 12.0783 34.3062 12.9061C33.8495 13.7196 33.2 14.3548 32.3579 14.8115C31.5158 15.254 30.5381 15.4752 29.4249 15.4752ZM29.4249 13.0131C30.9949 13.0131 31.7799 12.0069 31.7799 9.99441C31.7799 8.98103 31.5729 8.22456 31.159 7.72501C30.7594 7.22546 30.1813 6.97568 29.4249 6.97568C27.8548 6.97568 27.0698 7.98192 27.0698 9.99441C27.0698 12.0069 27.8548 13.0131 29.4249 13.0131Z" fill="#2B2B43"/>
<path d="M45.9291 0.103271C46.4287 0.103271 46.8283 0.238864 47.1281 0.51005C47.4421 0.781235 47.5991 1.13806 47.5991 1.58052V13.9123C47.5991 14.3691 47.4492 14.7402 47.1495 15.0256C46.864 15.2968 46.4786 15.4324 45.9934 15.4324C45.5081 15.4324 45.1156 15.2968 44.8159 15.0256C44.5304 14.7402 44.3877 14.3691 44.3877 13.9123V13.741C44.0737 14.2834 43.6241 14.7116 43.0389 15.0256C42.468 15.3253 41.8185 15.4752 41.0906 15.4752C40.1914 15.4752 39.385 15.2468 38.6714 14.7901C37.972 14.3191 37.4225 13.6697 37.0228 12.8419C36.6375 11.9998 36.4448 11.0363 36.4448 9.95159C36.4448 8.86685 36.6375 7.9177 37.0228 7.10414C37.4225 6.27631 37.972 5.64117 38.6714 5.1987C39.3707 4.75624 40.1772 4.53501 41.0906 4.53501C41.8043 4.53501 42.4466 4.68488 43.0175 4.98461C43.6027 5.28434 44.0523 5.70539 44.3663 6.24777V1.51629C44.3663 1.0881 44.509 0.745553 44.7944 0.488641C45.0799 0.231728 45.4581 0.103271 45.9291 0.103271ZM42.0326 13.0131C42.7891 13.0131 43.3672 12.7562 43.7668 12.2424C44.1807 11.7143 44.3877 10.965 44.3877 9.99441C44.3877 9.02385 44.1807 8.28166 43.7668 7.76783C43.3672 7.254 42.7891 6.99709 42.0326 6.99709C41.2762 6.99709 40.691 7.254 40.2771 7.76783C39.8632 8.26738 39.6562 8.9953 39.6562 9.95159C39.6562 10.9221 39.8632 11.6786 40.2771 12.221C40.691 12.7491 41.2762 13.0131 42.0326 13.0131Z" fill="#2B2B43"/>
</svg>
